<svg width="128" height="128" viewBox="0 0 128 128" fill="none" xmlns="http://www.w3.org/2000/svg">
<g clip-path="url(#clip0_2_2)">
<mask id="mask0_2_2" style="mask-type:luminance" maskUnits="userSpaceOnUse" x="0" y="0" width="128" height="128">
<path d="M109.714 0H18.2857C8.18679 0 0 8.18679 0 18.2857V109.714C0 119.813 8.18679 128 18.2857 128H109.714C119.813 128 128 119.813 128 109.714V18.2857C128 8.18679 119.813 0 109.714 0Z" fill="white"/>
</mask>
<g mask="url(#mask0_2_2)">
<path d="M109.714 0H18.2857C8.18679 0 0 8.18679 0 18.2857V109.714C0 119.813 8.18679 128 18.2857 128H109.714C119.813 128 128 119.813 128 109.714V18.2857C128 8.18679 119.813 0 109.714 0Z" fill="url(#paint0_linear_2_2)"/>
</g>
<path d="M109.714 2.4H18.2857C9.51228 2.4 2.4 9.51228 2.4 18.2857V109.714C2.4 118.488 9.51228 125.6 18.2857 125.6H109.714C118.488 125.6 125.6 118.488 125.6 109.714V18.2857C125.6 9.51228 118.488 2.4 109.714 2.4Z" stroke="#EFB0FF" stroke-opacity="0.15" stroke-width="2.1"/>
<path d="M19 102.5L31.6665 116L57 89" stroke="white" stroke-width="3.5" stroke-linecap="round" stroke-linejoin="round"/>
<path d="M18.5284 45V15.9091H24.679V27.9119H37.1648V15.9091H43.3011V45H37.1648V32.983H24.679V45H18.5284ZM64.1534 24.2756C64.0398 23.1297 63.5521 22.2396 62.6903 21.6051C61.8286 20.9706 60.6591 20.6534 59.1818 20.6534C58.178 20.6534 57.3305 20.7955 56.6392 21.0795C55.9479 21.3542 55.4176 21.7377 55.0483 22.2301C54.6884 22.7225 54.5085 23.2812 54.5085 23.9062C54.4896 24.4271 54.5985 24.8816 54.8352 25.2699C55.0814 25.6581 55.4176 25.9943 55.8438 26.2784C56.2699 26.553 56.7623 26.7945 57.321 27.0028C57.8797 27.2017 58.4763 27.3722 59.1108 27.5142L61.7244 28.1392C62.9934 28.4233 64.1581 28.8021 65.2188 29.2756C66.2794 29.7491 67.1979 30.3314 67.9744 31.0227C68.7509 31.714 69.3523 32.5284 69.7784 33.4659C70.214 34.4034 70.4366 35.4782 70.446 36.6903C70.4366 38.4706 69.982 40.0142 69.0824 41.321C68.1922 42.6184 66.9044 43.6269 65.2188 44.3466C63.5426 45.0568 61.5208 45.4119 59.1534 45.4119C56.8049 45.4119 54.7595 45.0521 53.017 44.3324C51.2841 43.6127 49.9299 42.5473 48.9545 41.1364C47.9886 39.7159 47.482 37.9593 47.4347 35.8665H53.3864C53.4527 36.8419 53.732 37.6562 54.2244 38.3097C54.7263 38.9536 55.3939 39.4413 56.2273 39.7727C57.0701 40.0947 58.0218 40.2557 59.0824 40.2557C60.1241 40.2557 61.0284 40.1042 61.7955 39.8011C62.572 39.4981 63.1733 39.0767 63.5994 38.5369C64.0256 37.9972 64.2386 37.3769 64.2386 36.6761C64.2386 36.0227 64.0445 35.4735 63.6562 35.0284C63.2775 34.5833 62.7188 34.2045 61.9801 33.892C61.2509 33.5795 60.3561 33.2955 59.2955 33.0398L56.1278 32.2443C53.6752 31.6477 51.7386 30.715 50.3182 29.446C48.8977 28.1771 48.1922 26.4678 48.2017 24.3182C48.1922 22.5568 48.661 21.018 49.608 19.7017C50.5644 18.3854 51.8759 17.358 53.5426 16.6193C55.2093 15.8807 57.1032 15.5114 59.2244 15.5114C61.3835 15.5114 63.268 15.8807 64.8778 16.6193C66.4972 17.358 67.7566 18.3854 68.6562 19.7017C69.5559 21.018 70.0199 22.5426 70.0483 24.2756H64.1534Z" fill="white"/>
</g>
<defs>
<linearGradient id="paint0_linear_2_2" x1="64" y1="0" x2="64" y2="128" gradientUnits="userSpaceOnUse">
<stop stop-color="#4E3818"/>
<stop offset="1" stop-color="#25083C"/>
</linearGradient>
<clipPath id="clip0_2_2">
<rect width="128" height="128" fill="white"/>
</clipPath>
</defs>
</svg>
